<?xml version="1.0" encoding="UTF-8" standalone="no"?>
<!-- Created with Inkscape (http://www.inkscape.org/) -->

<svg
   version="1.1"
   id="svg2"
   width="1122.52"
   height="793.70667"
   viewBox="0 0 1122.52 793.70667"
   sodipodi:docname="logo schwarz.ai"
   xmlns:inkscape="http://www.inkscape.org/namespaces/inkscape"
   xmlns:sodipodi="http://sodipodi.sourceforge.net/DTD/sodipodi-0.dtd"
   xmlns="http://www.w3.org/2000/svg"
   xmlns:svg="http://www.w3.org/2000/svg">
  <defs
     id="defs6">
    <clipPath
       clipPathUnits="userSpaceOnUse"
       id="clipPath16">
      <path
         d="M 0,595.28 H 841.89 V 0 H 0 Z"
         id="path14" />
    </clipPath>
  </defs>
  <sodipodi:namedview
     id="namedview4"
     pagecolor="#ffffff"
     bordercolor="#000000"
     borderopacity="0.25"
     inkscape:showpageshadow="2"
     inkscape:pageopacity="0.0"
     inkscape:pagecheckerboard="0"
     inkscape:deskcolor="#d1d1d1" />
  <g
     id="g8"
     inkscape:groupmode="layer"
     inkscape:label="logo schwarz"
     transform="matrix(1.3333333,0,0,-1.3333333,0,793.70667)">
    <g
       id="g10">
      <g
         id="g12"
         clip-path="url(#clipPath16)">
        <g
           id="g18"
           transform="translate(414.0767,439.8999)">
          <path
             d="m 0,0 c -15.864,0 -28.722,-14.05 -28.722,-31.381 0,13.04 10.031,23.61 22.405,23.61 12.375,0 22.406,-10.57 22.406,-23.61 0,-13.041 -10.031,-23.612 -22.406,-23.612 -12.37,0 -22.4,10.566 -22.404,23.602 0.004,-17.328 12.862,-31.372 28.721,-31.372 15.863,0 28.721,14.05 28.721,31.382 C 28.721,-14.05 15.863,0 0,0"
             style="fill:#1d1d1b;fill-opacity:1;fill-rule:nonzero;stroke:none"
             id="path20" />
        </g>
        <g
           id="g22"
           transform="translate(417.5298,365.6958)">
          <path
             d="m 0,0 c -22.77,0 -41.23,19.554 -41.23,43.675 0,24.12 18.46,43.673 41.23,43.673 19.104,0 35.168,-13.766 39.846,-32.443 -4.923,21.108 -22.441,36.719 -43.299,36.719 -24.679,0 -44.685,-21.849 -44.685,-48.802 0,-26.951 20.006,-48.801 44.685,-48.801 24.677,0 44.682,21.85 44.682,48.801 0,0.146 -0.008,0.289 -0.009,0.432 C 41.006,19.328 22.637,0 0,0"
             style="fill:#1d1d1b;fill-opacity:1;fill-rule:nonzero;stroke:none"
             id="path24" />
        </g>
      </g>
    </g>
  </g>
</svg>
